<svg width="16" height="16" viewBox="0 0 16 16" fill="none" xmlns="http://www.w3.org/2000/svg">
<g clip-path="url(#clip0_199_29)">
<path fill-rule="evenodd" clip-rule="evenodd" d="M5.14286 1.14286C5.14286 0.511674 4.63118 0 4 0C3.36882 0 2.85714 0.511674 2.85714 1.14286V2.28571H1.71429C0.767512 2.28571 0 3.05322 0 4V14.2857C0 15.2325 0.767512 16 1.71429 16H14.2857C15.2325 16 16 15.2325 16 14.2857V4C16 3.05322 15.2325 2.28571 14.2857 2.28571H13.143V1.14286C13.143 0.511674 12.6313 0 12.0001 0C11.369 0 10.8573 0.511674 10.8573 1.14286V2.28571H5.14286V1.14286ZM7.98713 5.85725C8.09387 5.8552 8.19907 5.88305 8.29082 5.93766C8.38257 5.99227 8.4572 6.07146 8.5063 6.16629L8.50841 6.17046L9.35911 7.88174L9.36247 7.88243L11.247 8.16857C11.3534 8.1831 11.4537 8.22729 11.5362 8.29614C11.6197 8.36574 11.6815 8.45766 11.7146 8.56114C11.7478 8.66463 11.7507 8.77541 11.7232 8.88052C11.6958 8.98504 11.6394 9.07966 11.5606 9.15345L10.2343 10.4138C10.2442 10.4368 10.251 10.4611 10.2545 10.486L10.5202 12.3554C10.5401 12.4605 10.5302 12.569 10.4916 12.6689C10.4515 12.7721 10.3824 12.8616 10.2926 12.9263C10.2028 12.9911 10.0961 13.0283 9.98554 13.0337C9.87726 13.039 9.76976 13.0133 9.67556 12.9598L8.01173 12.079C8.00657 12.0773 8.00115 12.0763 7.99569 12.0763C7.99023 12.0763 7.98482 12.0773 7.97967 12.079L6.31583 12.9598C6.22162 13.0133 6.11413 13.039 6.00585 13.0337C5.89525 13.0283 5.78858 12.9911 5.69877 12.9263C5.60895 12.8616 5.53984 12.7721 5.49984 12.6689C5.46063 12.5678 5.45102 12.4576 5.47202 12.3512L5.78739 10.4787C5.7891 10.4686 5.79134 10.4587 5.7941 10.4488L4.42911 9.14191L4.42337 9.13625C4.34957 9.0615 4.29777 8.96787 4.27366 8.86563C4.24954 8.76339 4.25403 8.65649 4.28664 8.55663C4.31925 8.45678 4.37871 8.36782 4.45851 8.29952C4.53832 8.23121 4.63538 8.18619 4.73907 8.16939L4.74334 8.16873L6.63194 7.89187L6.63331 7.88953L7.48182 6.18267C7.52729 6.0875 7.59821 6.00671 7.68675 5.94928C7.77633 5.89118 7.88038 5.8593 7.98713 5.85725Z" fill="black"/>
</g>
<defs>
<clipPath id="clip0_199_29">
<rect width="16" height="16" fill="white"/>
</clipPath>
</defs>
</svg>
