<svg xmlns="http://www.w3.org/2000/svg" viewBox="0 0 65.2 65.2">
    <path d="M0 0h14.2v14.2H0V0Zm18.4 0h13.9l-.6 16.7-13.3-2.5V0Zm18.2 0 14 2.3-3.8 12.1-10.9 2.3.7-16.7Zm18.3 2.3L65.2 0l-.9 15.1-13.2-.7 3.8-12.1ZM0 18.4v11.9l13.2 1.3 1-13.2H0Zm18.4 0 13.3 2.5-1.6 11.3-12.7-.6 1-13.2Zm28.4.3 1.4 12.1-13.8 1.4 1.5-11.3 10.9-2.2Zm4.3 0 13.2.6.9 9.8-12.7 1.7-1.4-12.1ZM0 34.5l13.2 1.3-2.1 10.1L.7 48.2 0 34.5Zm17.4 1.3 12.7.7-1.8 11.8-13-2.4 2.1-10.1Zm30.8-.8-1.4 11.8-14.3 1.5 1.9-11.8L48.2 35Zm17-1.7v13.5H51L52.5 35l12.7-1.7ZM11.1 50.1l2.3 13.8L0 65.2l.7-12.7 10.4-2.4Zm4.2 0 13 2.4 1 12.7-11.6-1-2.4-14.1Zm31.5.9v14.1H33.6l-1.1-12.6L46.8 51Z"
          style="fill:#e66b00"/>
    <path style="fill:#575756" d="M51 51h14.2v14.2H51z"/>
</svg>
